<svg xmlns="http://www.w3.org/2000/svg" width="16" height="16" fill="currentColor" class="bi bi-qiita" viewBox="0 0 1250 1250">
    <g transform="translate(0,0) scale(1)">
        <g transform="matrix(1,0,0,1,-4197.443079,0)">
            <g transform="matrix(4.166667,0,0,4.166667,4197.443079,0)">
                <g>
                    <g transform="translate(222.769,72.6405)">
                        <path d="M0,154.718C-16.181,171.976 -38.166,177.653 -64.779,180.345C-118.666,185.794 -165.348,161.729 -171.002,101.601C-173.405,76.039 -167.716,51.739 -156.246,31.826L-162.924,5.564C-164.002,0.999 -159.801,-3.343 -155.352,-2.263L-132.283,3.337C-118.565,-7.927 -101.971,-15.288 -83.667,-17.139C-68.01,-18.722 -52.83,-16.096 -39.029,-10.108L-17.345,-23.226C-13.264,-25.694 -8.097,-22.904 -7.707,-18.021L-6.457,12.914L-6.457,12.915C10.219,30.52 21.574,54.564 24.141,81.867C25.591,97.289 23.991,109.086 19.903,120.341C17.989,125.609 17.413,130.064 20.873,134.473C24.215,138.733 29.516,147.004 35.427,145.618C44.311,143.535 53.825,144.09 59.705,147.762C70.886,126.767 77.231,102.806 77.231,77.359C77.231,-5.483 10.074,-72.641 -72.769,-72.641C-155.612,-72.641 -222.769,-5.483 -222.769,77.359C-222.769,160.202 -155.612,227.359 -72.769,227.359C-30.289,227.359 8.062,209.696 35.354,181.319C30.567,180.601 25.671,178.742 21.02,175.642C12.089,169.688 4.163,164.063 0,154.718" fill="#212529" fill-rule="nonzero"/>
                    </g>
                    <g transform="translate(208.9211,136.8465)">
                        <path d="M0,-19.464L14.009,-21.181L13.811,-23.705L-0.562,-21.944C-1.179,-23.759 -1.875,-25.534 -2.644,-27.268L13.188,-32.32L12.691,-35.489L-4.148,-29.657C-15.443,-53.337 -39.864,-67.714 -67.513,-64.918C-95.118,-62.127 -116.976,-42.25 -123.683,-16.813L-140.153,-19.307L-140.329,-16.071L-124.112,-14.313C-124.552,-12.442 -124.915,-11.333 -125.187,-9.41L-139.336,-8.281L-139.207,-5.75L-125.417,-6.851C-125.66,-4.71 -125.805,-3.333 -125.832,-1.144L-138.43,4.007L-137.812,7.13L-125.815,1.516C-125.787,3.189 -125.715,4.081 -125.556,5.774C-122.222,41.238 -92.6,48.25 -57.209,44.671C-21.819,41.092 5.938,28.278 2.604,-7.186C2.443,-8.888 2.199,-9.772 1.913,-11.427L14.908,-8.605L15.211,-11.467L1.58,-14.055C1.152,-16.164 0.624,-17.443 0,-19.464" fill="#212529" fill-rule="nonzero"/>
                    </g>
                </g>
            </g>
        </g>
    </g>
</svg>
